<svg id="svg2" xmlns:rdf="http://www.w3.org/1999/02/22-rdf-syntax-ns#" style="enable-background:new" xmlns="http://www.w3.org/2000/svg" height="200" width="133.63" version="1.1" xmlns:cc="http://creativecommons.org/ns#" xmlns:dc="http://purl.org/dc/elements/1.1/" viewBox="0 0 133.63142 199.99999">
<defs id="defs4">
<filter id="a" style="color-interpolation-filters:sRGB">
<feBlend id="feBlend4299" in2="BackgroundImage" mode="screen"/>
</filter>
</defs>
<g id="layer9" transform="translate(-155.36 -414.67)">
<g id="g4199" transform="matrix(.23389 0 0 .23389 130.67 396.06)">
<g id="g4158" opacity="0.97" fill-rule="evenodd" transform="translate(32.303 -36.878)">
<path id="path4201" opacity=".8" d="m200 513.36h321.78v235h-321.78z" transform="matrix(-1 0 0 -1 717.82 909.72)" filter="url(#a)" fill="#ffa9b3"/>
<path id="path4255" opacity="1" d="m617.77 526.87 0.28104-179.02-146.42 70.821v148.67z" fill="#31ffae"/>
<path id="path4252" opacity=".7" d="m623.21 505.51-86.59-68.322-0.15138-231.29 86.59 117.67z" fill="#ffa787"/>
<path id="path4258" opacity="0.79" d="m458.71 606.56-200.94 0.84311 0.56207-147.82 200.66 0.28104z" fill="#ffa9b3"/>
<path id="path4263" opacity="1" d="m99.798 633.09 146.17 20 0.23-147.51-146.62-51.32z" fill="#ffa787"/>
<path id="path4266" opacity=".7" d="m181.37 673.91-85.875 15.88-0.882-181.75 86.467-65.59z" fill="#31ffae"/>
<path id="path4269" opacity=".7" d="m517.82 748.36v-235h-320v235z" fill="#ffa9b3"/>
</g>
<g id="text4301" opacity="0.97" fill="#31ffae">
<path id="path4157" fill="#ffa9b3" d="m356.29 872.3q2.34 0 3.6 2.16 1.44 2.16 1.44 5.94 0 7.02-3.42 11.16-8.82 10.44-17.46 16.2-8.64 5.58-19.26 5.58-16.02 0-24.3-9.54-8.1-9.54-13.14-27.9l-6.12-22.32-42.48 52.56q-3.6 4.5-7.38 5.94-3.78 1.26-8.82 1.26t-8.46-1.8q-3.24-1.98-3.24-5.4 0-4.5 5.22-10.26l58.32-66.42-5.76-21.06q-4.14-14.76-9.18-20.7t-11.52-5.94q-9.54 0-22.32 13.86-2.16 2.34-4.86 2.34t-4.68-1.98q-1.8-2.16-1.8-5.4 0-5.4 5.22-11.7 7.38-8.64 16.02-13.86t20.52-5.22q12.78 0 21.06 8.1 8.28 7.92 13.14 25.74l3.6 12.6 31.5-38.34q3.6-4.32 7.38-6.12t9.18-1.8q4.86 0 7.56 1.8 2.88 1.8 2.88 5.04 0 4.32-4.86 9.9l-46.8 54 10.26 36.72q2.7 9.54 4.86 14.58t5.22 7.56q3.24 2.34 8.46 2.34 5.58 0 11.52-3.96 6.12-3.96 14.04-13.14 2.16-2.52 4.86-2.52z"/>
<path id="path4159" d="m370.49 816.68q-7.56 0-11.34-3.42-3.78-3.6-3.78-9.9t4.86-10.44q5.04-4.32 12.42-4.32 6.66 0 10.8 3.24t4.14 9.18q0 7.2-4.68 11.52-4.68 4.14-12.42 4.14zm-1.44 96.66q-11.7 0-17.1-8.28-5.22-8.28-5.22-21.96 0-8.1 1.98-20.7 2.16-12.78 5.4-23.76 1.62-5.76 4.32-7.92t8.64-2.16q9.18 0 9.18 6.12 0 4.5-3.42 20.88-4.32 19.8-4.32 26.82 0 5.4 1.44 8.28t4.86 2.88q3.24 0 8.1-4.5t12.96-14.22q2.16-2.52 4.86-2.52 2.34 0 3.6 2.16 1.44 2.16 1.44 5.94 0 7.2-3.42 11.16-17.82 21.78-33.3 21.78z"/>
<path id="path4161" d="m409.57 913.34q-8.1 0-13.32-7.38-5.04-7.56-5.04-18.72 0-13.5 1.8-24.66 1.8-11.34 5.94-23.94 1.8-5.4 5.04-7.74t10.26-2.34q3.96 0 5.4 1.26 1.62 1.26 1.62 3.78 0 1.44-1.98 9.72-1.8 6.66-2.88 12.06-3.6 18.9-3.6 25.2 0 3.78 0.9 5.4 0.9 1.44 2.88 1.44 2.7 0 6.66-5.4 4.14-5.4 8.64-16.38 4.68-10.98 9-27 1.44-5.4 4.32-7.74 3.06-2.34 9-2.34 4.14 0 5.76 1.08 1.62 0.9 1.62 3.6 0 4.5-4.5 24.66-5.04 23.04-5.04 28.44 0 3.42 1.44 5.4 1.44 1.8 3.78 1.8 3.6 0 8.46-4.32 5.04-4.5 13.32-14.4 2.16-2.52 4.86-2.52 2.34 0 3.6 2.16 1.44 2.16 1.44 5.94 0 7.2-3.42 11.16-7.74 9.54-16.74 15.66-8.82 6.12-20.16 6.12-8.64 0-12.78-6.66-3.96-6.66-3.96-18.72-3.06 12.24-9.18 18.9-6.12 6.48-13.14 6.48z"/>
<path id="path4163" d="m542.75 872.3q2.34 0 3.6 2.16 1.44 2.16 1.44 5.94 0 7.2-3.42 11.16-7.74 9.54-16.92 15.66-9 6.12-20.52 6.12-15.84 0-23.58-14.4-7.56-14.4-7.56-37.26 0-21.96 5.58-50.04 5.76-28.08 16.74-48.24 11.16-20.16 26.46-20.16 8.64 0 13.5 8.1 5.04 7.92 5.04 22.86 0 21.42-11.88 49.68t-32.22 55.98q1.26 7.38 4.14 10.62 2.88 3.06 7.56 3.06 7.38 0 12.96-4.14 5.58-4.32 14.22-14.58 2.16-2.52 4.86-2.52zm-22.14-111.24q-4.14 0-9.36 14.94t-9.18 37.08-4.32 42.48q12.78-21.06 20.34-42.12 7.56-21.24 7.56-38.7 0-13.68-5.04-13.68z"/>
<path id="path4165" d="m558.08 816.68q-7.56 0-11.34-3.42-3.78-3.6-3.78-9.9t4.86-10.44q5.04-4.32 12.42-4.32 6.66 0 10.8 3.24t4.14 9.18q0 7.2-4.68 11.52-4.68 4.14-12.42 4.14zm-17.28 96.66q-5.76 0-7.92-2.34t-2.16-7.38q0-1.44 0.36-5.04 2.88-32.94 9.54-59.94 1.44-5.58 4.68-7.74 3.42-2.34 10.8-2.34 7.74 0 7.74 6.3 0 0.9-0.36 3.42-8.1 38.52-9.72 64.62-0.36 5.76-3.42 8.1t-9.54 2.34z"/>
</g>
</g>
</g>
</svg>
